<?xml version="1.0" encoding="utf-8" standalone="no"?>
<!DOCTYPE svg PUBLIC "-//W3C//DTD SVG 1.1//EN"
  "http://www.w3.org/Graphics/SVG/1.1/DTD/svg11.dtd">
<svg xmlns:xlink="http://www.w3.org/1999/xlink" width="460.8pt" height="345.6pt" viewBox="0 0 460.8 345.6" xmlns="http://www.w3.org/2000/svg" version="1.1">
 <metadata>
  <rdf:RDF xmlns:dc="http://purl.org/dc/elements/1.1/" xmlns:cc="http://creativecommons.org/ns#" xmlns:rdf="http://www.w3.org/1999/02/22-rdf-syntax-ns#">
   <cc:Work>
    <dc:type rdf:resource="http://purl.org/dc/dcmitype/StillImage"/>
    <dc:date>2024-02-09T15:48:03.517489</dc:date>
    <dc:format>image/svg+xml</dc:format>
    <dc:creator>
     <cc:Agent>
      <dc:title>Matplotlib v3.8.2, https://matplotlib.org/</dc:title>
     </cc:Agent>
    </dc:creator>
   </cc:Work>
  </rdf:RDF>
 </metadata>
 <defs>
  <style type="text/css">*{stroke-linejoin: round; stroke-linecap: butt}</style>
 </defs>
 <g id="figure_1">
  <g id="patch_1">
   <path d="M 0 345.6 
L 460.8 345.6 
L 460.8 0 
L 0 0 
z
" style="fill: #ffffff"/>
  </g>
  <g id="axes_1">
   <g id="patch_2">
    <path d="M 369.216 174.528 
C 369.216 157.055246 365.774248 139.752393 359.087715 123.609673 
C 352.401182 107.466954 342.599903 92.798303 330.2448 80.4432 
C 317.889697 68.088097 303.221046 58.286818 287.078327 51.600285 
C 270.935607 44.913752 253.632754 41.472 236.16 41.472 
C 218.687246 41.472 201.384393 44.913752 185.241673 51.600285 
C 169.098954 58.286818 154.430303 68.088097 142.0752 80.4432 
C 129.720097 92.798303 119.918818 107.466954 113.232285 123.609673 
C 106.545752 139.752393 103.104 157.055246 103.104 174.528 
C 103.104 192.000754 106.545752 209.303607 113.232285 225.446327 
C 119.918818 241.589046 129.720097 256.257697 142.0752 268.6128 
C 154.430303 280.967903 169.098954 290.769182 185.241673 297.455715 
C 201.384393 304.142248 218.687246 307.584 236.16 307.584 
C 253.632754 307.584 270.935607 304.142248 287.078327 297.455715 
C 303.221046 290.769182 317.889697 280.967903 330.2448 268.6128 
C 342.599903 256.257697 352.401182 241.589046 359.087715 225.446327 
C 365.774248 209.303607 369.216 192.000754 369.216 174.528 
M 236.16 174.528 
C 236.16 174.528 236.16 174.528 236.16 174.528 
C 236.16 174.528 236.16 174.528 236.16 174.528 
C 236.16 174.528 236.16 174.528 236.16 174.528 
C 236.16 174.528 236.16 174.528 236.16 174.528 
C 236.16 174.528 236.16 174.528 236.16 174.528 
C 236.16 174.528 236.16 174.528 236.16 174.528 
C 236.16 174.528 236.16 174.528 236.16 174.528 
C 236.16 174.528 236.16 174.528 236.16 174.528 
C 236.16 174.528 236.16 174.528 236.16 174.528 
C 236.16 174.528 236.16 174.528 236.16 174.528 
C 236.16 174.528 236.16 174.528 236.16 174.528 
C 236.16 174.528 236.16 174.528 236.16 174.528 
C 236.16 174.528 236.16 174.528 236.16 174.528 
C 236.16 174.528 236.16 174.528 236.16 174.528 
C 236.16 174.528 236.16 174.528 236.16 174.528 
C 236.16 174.528 236.16 174.528 236.16 174.528 
z
" style="fill: #ffffff"/>
   </g>
   <g id="matplotlib.axis_1">
    <g id="xtick_1">
     <g id="line2d_1">
      <path d="M 236.16 174.528 
L 369.216 174.528 
" clip-path="url(#pbdb9721af2)" style="fill: none; stroke: #b0b0b0; stroke-width: 0.8; stroke-linecap: square"/>
     </g>
     <g id="text_1">
      <!-- 0° -->
      <g transform="translate(377.53475 177.287375) scale(0.1 -0.1)">
       <defs>
        <path id="DejaVuSans-30" d="M 2034 4250 
Q 1547 4250 1301 3770 
Q 1056 3291 1056 2328 
Q 1056 1369 1301 889 
Q 1547 409 2034 409 
Q 2525 409 2770 889 
Q 3016 1369 3016 2328 
Q 3016 3291 2770 3770 
Q 2525 4250 2034 4250 
z
M 2034 4750 
Q 2819 4750 3233 4129 
Q 3647 3509 3647 2328 
Q 3647 1150 3233 529 
Q 2819 -91 2034 -91 
Q 1250 -91 836 529 
Q 422 1150 422 2328 
Q 422 3509 836 4129 
Q 1250 4750 2034 4750 
z
" transform="scale(0.015625)"/>
        <path id="DejaVuSans-b0" d="M 1600 4347 
Q 1350 4347 1178 4173 
Q 1006 4000 1006 3750 
Q 1006 3503 1178 3333 
Q 1350 3163 1600 3163 
Q 1850 3163 2022 3333 
Q 2194 3503 2194 3750 
Q 2194 3997 2020 4172 
Q 1847 4347 1600 4347 
z
M 1600 4750 
Q 1800 4750 1984 4673 
Q 2169 4597 2303 4453 
Q 2447 4313 2519 4134 
Q 2591 3956 2591 3750 
Q 2591 3338 2302 3052 
Q 2013 2766 1594 2766 
Q 1172 2766 890 3047 
Q 609 3328 609 3750 
Q 609 4169 896 4459 
Q 1184 4750 1600 4750 
z
" transform="scale(0.015625)"/>
       </defs>
       <use xlink:href="#DejaVuSans-30"/>
       <use xlink:href="#DejaVuSans-b0" x="63.623047"/>
      </g>
     </g>
    </g>
    <g id="xtick_2">
     <g id="line2d_2">
      <path d="M 236.16 174.528 
L 330.2448 80.4432 
" clip-path="url(#pbdb9721af2)" style="fill: none; stroke: #b0b0b0; stroke-width: 0.8; stroke-linecap: square"/>
     </g>
     <g id="text_2">
      <!-- 45° -->
      <g transform="translate(331.281795 73.30308) scale(0.1 -0.1)">
       <defs>
        <path id="DejaVuSans-34" d="M 2419 4116 
L 825 1625 
L 2419 1625 
L 2419 4116 
z
M 2253 4666 
L 3047 4666 
L 3047 1625 
L 3713 1625 
L 3713 1100 
L 3047 1100 
L 3047 0 
L 2419 0 
L 2419 1100 
L 313 1100 
L 313 1709 
L 2253 4666 
z
" transform="scale(0.015625)"/>
        <path id="DejaVuSans-35" d="M 691 4666 
L 3169 4666 
L 3169 4134 
L 1269 4134 
L 1269 2991 
Q 1406 3038 1543 3061 
Q 1681 3084 1819 3084 
Q 2600 3084 3056 2656 
Q 3513 2228 3513 1497 
Q 3513 744 3044 326 
Q 2575 -91 1722 -91 
Q 1428 -91 1123 -41 
Q 819 9 494 109 
L 494 744 
Q 775 591 1075 516 
Q 1375 441 1709 441 
Q 2250 441 2565 725 
Q 2881 1009 2881 1497 
Q 2881 1984 2565 2268 
Q 2250 2553 1709 2553 
Q 1456 2553 1204 2497 
Q 953 2441 691 2322 
L 691 4666 
z
" transform="scale(0.015625)"/>
       </defs>
       <use xlink:href="#DejaVuSans-34"/>
       <use xlink:href="#DejaVuSans-35" x="63.623047"/>
       <use xlink:href="#DejaVuSans-b0" x="127.246094"/>
      </g>
     </g>
    </g>
    <g id="xtick_3">
     <g id="line2d_3">
      <path d="M 236.16 174.528 
L 236.16 41.472 
" clip-path="url(#pbdb9721af2)" style="fill: none; stroke: #b0b0b0; stroke-width: 0.8; stroke-linecap: square"/>
     </g>
     <g id="text_3">
      <!-- 90° -->
      <g transform="translate(227.2975 30.231375) scale(0.1 -0.1)">
       <defs>
        <path id="DejaVuSans-39" d="M 703 97 
L 703 672 
Q 941 559 1184 500 
Q 1428 441 1663 441 
Q 2288 441 2617 861 
Q 2947 1281 2994 2138 
Q 2813 1869 2534 1725 
Q 2256 1581 1919 1581 
Q 1219 1581 811 2004 
Q 403 2428 403 3163 
Q 403 3881 828 4315 
Q 1253 4750 1959 4750 
Q 2769 4750 3195 4129 
Q 3622 3509 3622 2328 
Q 3622 1225 3098 567 
Q 2575 -91 1691 -91 
Q 1453 -91 1209 -44 
Q 966 3 703 97 
z
M 1959 2075 
Q 2384 2075 2632 2365 
Q 2881 2656 2881 3163 
Q 2881 3666 2632 3958 
Q 2384 4250 1959 4250 
Q 1534 4250 1286 3958 
Q 1038 3666 1038 3163 
Q 1038 2656 1286 2365 
Q 1534 2075 1959 2075 
z
" transform="scale(0.015625)"/>
       </defs>
       <use xlink:href="#DejaVuSans-39"/>
       <use xlink:href="#DejaVuSans-30" x="63.623047"/>
       <use xlink:href="#DejaVuSans-b0" x="127.246094"/>
      </g>
     </g>
    </g>
    <g id="xtick_4">
     <g id="line2d_4">
      <path d="M 236.16 174.528 
L 142.0752 80.4432 
" clip-path="url(#pbdb9721af2)" style="fill: none; stroke: #b0b0b0; stroke-width: 0.8; stroke-linecap: square"/>
     </g>
     <g id="text_4">
      <!-- 135° -->
      <g transform="translate(120.131955 73.30308) scale(0.1 -0.1)">
       <defs>
        <path id="DejaVuSans-31" d="M 794 531 
L 1825 531 
L 1825 4091 
L 703 3866 
L 703 4441 
L 1819 4666 
L 2450 4666 
L 2450 531 
L 3481 531 
L 3481 0 
L 794 0 
L 794 531 
z
" transform="scale(0.015625)"/>
        <path id="DejaVuSans-33" d="M 2597 2516 
Q 3050 2419 3304 2112 
Q 3559 1806 3559 1356 
Q 3559 666 3084 287 
Q 2609 -91 1734 -91 
Q 1441 -91 1130 -33 
Q 819 25 488 141 
L 488 750 
Q 750 597 1062 519 
Q 1375 441 1716 441 
Q 2309 441 2620 675 
Q 2931 909 2931 1356 
Q 2931 1769 2642 2001 
Q 2353 2234 1838 2234 
L 1294 2234 
L 1294 2753 
L 1863 2753 
Q 2328 2753 2575 2939 
Q 2822 3125 2822 3475 
Q 2822 3834 2567 4026 
Q 2313 4219 1838 4219 
Q 1578 4219 1281 4162 
Q 984 4106 628 3988 
L 628 4550 
Q 988 4650 1302 4700 
Q 1616 4750 1894 4750 
Q 2613 4750 3031 4423 
Q 3450 4097 3450 3541 
Q 3450 3153 3228 2886 
Q 3006 2619 2597 2516 
z
" transform="scale(0.015625)"/>
       </defs>
       <use xlink:href="#DejaVuSans-31"/>
       <use xlink:href="#DejaVuSans-33" x="63.623047"/>
       <use xlink:href="#DejaVuSans-35" x="127.246094"/>
       <use xlink:href="#DejaVuSans-b0" x="190.869141"/>
      </g>
     </g>
    </g>
    <g id="xtick_5">
     <g id="line2d_5">
      <path d="M 236.16 174.528 
L 103.104 174.528 
" clip-path="url(#pbdb9721af2)" style="fill: none; stroke: #b0b0b0; stroke-width: 0.8; stroke-linecap: square"/>
     </g>
     <g id="text_5">
      <!-- 180° -->
      <g transform="translate(77.06025 177.287375) scale(0.1 -0.1)">
       <defs>
        <path id="DejaVuSans-38" d="M 2034 2216 
Q 1584 2216 1326 1975 
Q 1069 1734 1069 1313 
Q 1069 891 1326 650 
Q 1584 409 2034 409 
Q 2484 409 2743 651 
Q 3003 894 3003 1313 
Q 3003 1734 2745 1975 
Q 2488 2216 2034 2216 
z
M 1403 2484 
Q 997 2584 770 2862 
Q 544 3141 544 3541 
Q 544 4100 942 4425 
Q 1341 4750 2034 4750 
Q 2731 4750 3128 4425 
Q 3525 4100 3525 3541 
Q 3525 3141 3298 2862 
Q 3072 2584 2669 2484 
Q 3125 2378 3379 2068 
Q 3634 1759 3634 1313 
Q 3634 634 3220 271 
Q 2806 -91 2034 -91 
Q 1263 -91 848 271 
Q 434 634 434 1313 
Q 434 1759 690 2068 
Q 947 2378 1403 2484 
z
M 1172 3481 
Q 1172 3119 1398 2916 
Q 1625 2713 2034 2713 
Q 2441 2713 2670 2916 
Q 2900 3119 2900 3481 
Q 2900 3844 2670 4047 
Q 2441 4250 2034 4250 
Q 1625 4250 1398 4047 
Q 1172 3844 1172 3481 
z
" transform="scale(0.015625)"/>
       </defs>
       <use xlink:href="#DejaVuSans-31"/>
       <use xlink:href="#DejaVuSans-38" x="63.623047"/>
       <use xlink:href="#DejaVuSans-30" x="127.246094"/>
       <use xlink:href="#DejaVuSans-b0" x="190.869141"/>
      </g>
     </g>
    </g>
    <g id="xtick_6">
     <g id="line2d_6">
      <path d="M 236.16 174.528 
L 142.0752 268.6128 
" clip-path="url(#pbdb9721af2)" style="fill: none; stroke: #b0b0b0; stroke-width: 0.8; stroke-linecap: square"/>
     </g>
     <g id="text_6">
      <!-- 225° -->
      <g transform="translate(120.131955 281.27167) scale(0.1 -0.1)">
       <defs>
        <path id="DejaVuSans-32" d="M 1228 531 
L 3431 531 
L 3431 0 
L 469 0 
L 469 531 
Q 828 903 1448 1529 
Q 2069 2156 2228 2338 
Q 2531 2678 2651 2914 
Q 2772 3150 2772 3378 
Q 2772 3750 2511 3984 
Q 2250 4219 1831 4219 
Q 1534 4219 1204 4116 
Q 875 4013 500 3803 
L 500 4441 
Q 881 4594 1212 4672 
Q 1544 4750 1819 4750 
Q 2544 4750 2975 4387 
Q 3406 4025 3406 3419 
Q 3406 3131 3298 2873 
Q 3191 2616 2906 2266 
Q 2828 2175 2409 1742 
Q 1991 1309 1228 531 
z
" transform="scale(0.015625)"/>
       </defs>
       <use xlink:href="#DejaVuSans-32"/>
       <use xlink:href="#DejaVuSans-32" x="63.623047"/>
       <use xlink:href="#DejaVuSans-35" x="127.246094"/>
       <use xlink:href="#DejaVuSans-b0" x="190.869141"/>
      </g>
     </g>
    </g>
    <g id="xtick_7">
     <g id="line2d_7">
      <path d="M 236.16 174.528 
L 236.16 307.584 
" clip-path="url(#pbdb9721af2)" style="fill: none; stroke: #b0b0b0; stroke-width: 0.8; stroke-linecap: square"/>
     </g>
     <g id="text_7">
      <!-- 270° -->
      <g transform="translate(224.11625 324.343375) scale(0.1 -0.1)">
       <defs>
        <path id="DejaVuSans-37" d="M 525 4666 
L 3525 4666 
L 3525 4397 
L 1831 0 
L 1172 0 
L 2766 4134 
L 525 4134 
L 525 4666 
z
" transform="scale(0.015625)"/>
       </defs>
       <use xlink:href="#DejaVuSans-32"/>
       <use xlink:href="#DejaVuSans-37" x="63.623047"/>
       <use xlink:href="#DejaVuSans-30" x="127.246094"/>
       <use xlink:href="#DejaVuSans-b0" x="190.869141"/>
      </g>
     </g>
    </g>
    <g id="xtick_8">
     <g id="line2d_8">
      <path d="M 236.16 174.528 
L 330.2448 268.6128 
" clip-path="url(#pbdb9721af2)" style="fill: none; stroke: #b0b0b0; stroke-width: 0.8; stroke-linecap: square"/>
     </g>
     <g id="text_8">
      <!-- 315° -->
      <g transform="translate(328.100545 281.27167) scale(0.1 -0.1)">
       <use xlink:href="#DejaVuSans-33"/>
       <use xlink:href="#DejaVuSans-31" x="63.623047"/>
       <use xlink:href="#DejaVuSans-35" x="127.246094"/>
       <use xlink:href="#DejaVuSans-b0" x="190.869141"/>
      </g>
     </g>
    </g>
   </g>
   <g id="matplotlib.axis_2">
    <g id="ytick_1">
     <g id="line2d_9">
      <path d="M 267.999196 174.528 
C 267.999196 170.346915 267.175613 166.206486 265.575581 162.343667 
C 263.97555 158.480848 261.630185 154.970762 258.673711 152.014289 
C 255.717238 149.057815 252.207152 146.71245 248.344333 145.112419 
C 244.481514 143.512387 240.341085 142.688804 236.16 142.688804 
C 231.978915 142.688804 227.838486 143.512387 223.975667 145.112419 
C 220.112848 146.71245 216.602762 149.057815 213.646289 152.014289 
C 210.689815 154.970762 208.34445 158.480848 206.744419 162.343667 
C 205.144387 166.206486 204.320804 170.346915 204.320804 174.528 
C 204.320804 178.709085 205.144387 182.849514 206.744419 186.712333 
C 208.34445 190.575152 210.689815 194.085238 213.646289 197.041711 
C 216.602762 199.998185 220.112848 202.34355 223.975667 203.943581 
C 227.838486 205.543613 231.978915 206.367196 236.16 206.367196 
C 240.341085 206.367196 244.481514 205.543613 248.344333 203.943581 
C 252.207152 202.34355 255.717238 199.998185 258.673711 197.041711 
C 261.630185 194.085238 263.97555 190.575152 265.575581 186.712333 
C 267.175613 182.849514 267.999196 178.709085 267.999196 174.528 
" clip-path="url(#pbdb9721af2)" style="fill: none; stroke: #b0b0b0; stroke-width: 0.8; stroke-linecap: square"/>
     </g>
     <g id="text_9">
      <!-- 0.5 -->
      <g transform="translate(265.575581 160.26398) scale(0.1 -0.1)">
       <defs>
        <path id="DejaVuSans-2e" d="M 684 794 
L 1344 794 
L 1344 0 
L 684 0 
L 684 794 
z
" transform="scale(0.015625)"/>
       </defs>
       <use xlink:href="#DejaVuSans-30"/>
       <use xlink:href="#DejaVuSans-2e" x="63.623047"/>
       <use xlink:href="#DejaVuSans-35" x="95.410156"/>
      </g>
     </g>
    </g>
    <g id="ytick_2">
     <g id="line2d_10">
      <path d="M 299.838392 174.528 
C 299.838392 166.16583 298.191227 157.884972 294.991163 150.159334 
C 291.791099 142.433697 287.10037 135.413524 281.187423 129.500577 
C 275.274476 123.58763 268.254303 118.896901 260.528666 115.696837 
C 252.803028 112.496773 244.52217 110.849608 236.16 110.849608 
C 227.79783 110.849608 219.516972 112.496773 211.791334 115.696837 
C 204.065697 118.896901 197.045524 123.58763 191.132577 129.500577 
C 185.21963 135.413524 180.528901 142.433697 177.328837 150.159334 
C 174.128773 157.884972 172.481608 166.16583 172.481608 174.528 
C 172.481608 182.89017 174.128773 191.171028 177.328837 198.896666 
C 180.528901 206.622303 185.21963 213.642476 191.132577 219.555423 
C 197.045524 225.46837 204.065697 230.159099 211.791334 233.359163 
C 219.516972 236.559227 227.79783 238.206392 236.16 238.206392 
C 244.52217 238.206392 252.803028 236.559227 260.528666 233.359163 
C 268.254303 230.159099 275.274476 225.46837 281.187423 219.555423 
C 287.10037 213.642476 291.791099 206.622303 294.991163 198.896666 
C 298.191227 191.171028 299.838392 182.89017 299.838392 174.528 
" clip-path="url(#pbdb9721af2)" style="fill: none; stroke: #b0b0b0; stroke-width: 0.8; stroke-linecap: square"/>
     </g>
     <g id="text_10">
      <!-- 1.0 -->
      <g transform="translate(294.991163 148.079647) scale(0.1 -0.1)">
       <use xlink:href="#DejaVuSans-31"/>
       <use xlink:href="#DejaVuSans-2e" x="63.623047"/>
       <use xlink:href="#DejaVuSans-30" x="95.410156"/>
      </g>
     </g>
    </g>
    <g id="ytick_3">
     <g id="line2d_11">
      <path d="M 331.677588 174.528 
C 331.677588 161.984745 329.20684 149.563458 324.406744 137.975002 
C 319.606649 126.386545 312.570555 115.856286 303.701134 106.986866 
C 294.831714 98.117445 284.301455 91.081351 272.712998 86.281256 
C 261.124542 81.48116 248.703255 79.010412 236.16 79.010412 
C 223.616745 79.010412 211.195458 81.48116 199.607002 86.281256 
C 188.018545 91.081351 177.488286 98.117445 168.618866 106.986866 
C 159.749445 115.856286 152.713351 126.386545 147.913256 137.975002 
C 143.11316 149.563458 140.642412 161.984745 140.642412 174.528 
C 140.642412 187.071255 143.11316 199.492542 147.913256 211.080998 
C 152.713351 222.669455 159.749445 233.199714 168.618866 242.069134 
C 177.488286 250.938555 188.018545 257.974649 199.607002 262.774744 
C 211.195458 267.57484 223.616745 270.045588 236.16 270.045588 
C 248.703255 270.045588 261.124542 267.57484 272.712998 262.774744 
C 284.301455 257.974649 294.831714 250.938555 303.701134 242.069134 
C 312.570555 233.199714 319.606649 222.669455 324.406744 211.080998 
C 329.20684 199.492542 331.677588 187.071255 331.677588 174.528 
" clip-path="url(#pbdb9721af2)" style="fill: none; stroke: #b0b0b0; stroke-width: 0.8; stroke-linecap: square"/>
     </g>
     <g id="text_11">
      <!-- 1.5 -->
      <g transform="translate(324.406744 135.895314) scale(0.1 -0.1)">
       <use xlink:href="#DejaVuSans-31"/>
       <use xlink:href="#DejaVuSans-2e" x="63.623047"/>
       <use xlink:href="#DejaVuSans-35" x="95.410156"/>
      </g>
     </g>
    </g>
    <g id="ytick_4">
     <g id="line2d_12">
      <path d="M 363.516784 174.528 
C 363.516784 157.80366 360.222454 141.241944 353.822326 125.790669 
C 347.422198 110.339394 338.04074 96.299048 326.214846 84.473154 
C 314.388952 72.64726 300.348606 63.265802 284.897331 56.865674 
C 269.446056 50.465546 252.88434 47.171216 236.16 47.171216 
C 219.43566 47.171216 202.873944 50.465546 187.422669 56.865674 
C 171.971394 63.265802 157.931048 72.64726 146.105154 84.473154 
C 134.27926 96.299048 124.897802 110.339394 118.497674 125.790669 
C 112.097546 141.241944 108.803216 157.80366 108.803216 174.528 
C 108.803216 191.25234 112.097546 207.814056 118.497674 223.265331 
C 124.897802 238.716606 134.27926 252.756952 146.105154 264.582846 
C 157.931048 276.40874 171.971394 285.790198 187.422669 292.190326 
C 202.873944 298.590454 219.43566 301.884784 236.16 301.884784 
C 252.88434 301.884784 269.446056 298.590454 284.897331 292.190326 
C 300.348606 285.790198 314.388952 276.40874 326.214846 264.582846 
C 338.04074 252.756952 347.422198 238.716606 353.822326 223.265331 
C 360.222454 207.814056 363.516784 191.25234 363.516784 174.528 
" clip-path="url(#pbdb9721af2)" style="fill: none; stroke: #b0b0b0; stroke-width: 0.8; stroke-linecap: square"/>
     </g>
     <g id="text_12">
      <!-- 2.0 -->
      <g transform="translate(353.822326 123.710981) scale(0.1 -0.1)">
       <use xlink:href="#DejaVuSans-32"/>
       <use xlink:href="#DejaVuSans-2e" x="63.623047"/>
       <use xlink:href="#DejaVuSans-30" x="95.410156"/>
      </g>
     </g>
    </g>
   </g>
   <g id="line2d_13">
    <path d="M 236.16 174.528 
L 237.423525 174.36838 
L 238.627113 173.894553 
L 239.7124 173.121505 
L 240.624144 172.073816 
L 241.31169 170.785078 
L 241.730346 169.297097 
L 241.842619 167.658894 
L 241.619294 165.925529 
L 241.040329 164.156772 
L 240.095541 162.41565 
L 238.785071 160.766896 
L 237.119616 159.275343 
L 235.120416 158.004288 
L 232.819001 157.013868 
L 230.256688 156.359475 
L 227.483859 156.090262 
L 224.559 156.247749 
L 223.059773 156.497085 
L 221.547552 156.864584 
L 220.031382 157.352767 
L 218.520571 157.963474 
L 217.024633 158.697847 
L 215.553239 159.556312 
L 214.116168 160.538559 
L 212.723244 161.643534 
L 211.384289 162.869436 
L 210.109065 164.213705 
L 208.907213 165.673033 
L 207.788204 167.243361 
L 206.761278 168.919894 
L 205.835391 170.697111 
L 205.019159 172.568784 
L 204.320804 174.528 
L 203.748104 176.567184 
L 203.30834 178.67813 
L 203.00825 180.852035 
L 202.853978 183.079533 
L 202.851038 185.350738 
L 203.004264 187.655285 
L 203.317779 189.982376 
L 203.794956 192.320834 
L 204.438388 194.659147 
L 205.249859 196.985532 
L 206.230323 199.287982 
L 207.379879 201.554333 
L 208.697759 203.772316 
L 210.182314 205.929628 
L 211.831007 208.013986 
L 213.640411 210.013193 
L 215.606209 211.915206 
L 217.7232 213.708194 
L 219.98531 215.380603 
L 222.385606 216.921225 
L 224.916318 218.319251 
L 227.568859 219.56434 
L 230.333856 220.646676 
L 233.201185 221.557026 
L 236.16 222.286794 
L 239.198783 222.82808 
L 242.305384 223.173727 
L 245.46707 223.317369 
L 248.670576 223.253476 
L 251.902164 222.9774 
L 255.147679 222.485404 
L 258.392611 221.774704 
L 261.622158 220.843494 
L 264.821294 219.690973 
L 267.974837 218.317366 
L 271.067516 216.723938 
L 274.084047 214.913008 
L 277.009204 212.887956 
L 279.827889 210.65322 
L 282.525211 208.214298 
L 285.086555 205.577736 
L 287.497656 202.751115 
L 289.744676 199.743035 
L 291.814271 196.563085 
L 293.693662 193.22182 
L 295.370705 189.730725 
L 296.833958 186.102177 
L 298.072743 182.349398 
L 299.07721 178.486415 
L 299.838392 174.528 
L 300.348265 170.489617 
L 300.599794 166.387361 
L 300.586987 162.237895 
L 300.304931 158.058381 
L 299.749837 153.866409 
L 298.919072 149.679926 
L 297.811187 145.517154 
L 296.425944 141.396517 
L 294.764335 137.336558 
L 292.828591 133.355858 
L 290.622199 129.472951 
L 288.149896 125.706238 
L 285.417671 122.073909 
L 282.432754 118.59385 
L 279.203603 115.283564 
L 275.739883 112.160084 
L 272.05244 109.239894 
L 268.15327 106.538841 
L 264.05548 104.072061 
L 259.773246 101.8539 
L 255.321768 99.89784 
L 250.717212 98.216423 
L 245.976653 96.821189 
L 241.118015 95.722606 
L 236.16 94.93001 
L 231.122017 94.451551 
L 226.024106 94.294139 
L 220.88686 94.463395 
L 215.731338 94.963615 
L 210.578983 95.797725 
L 205.451531 96.96726 
L 200.370918 98.47233 
L 195.359192 100.311606 
L 190.438411 102.482304 
L 185.630553 104.980183 
L 180.957417 107.79954 
L 176.440523 110.933217 
L 172.101021 114.372615 
L 167.959588 118.107713 
L 164.036338 122.127092 
L 160.350723 126.41797 
L 156.921444 130.966235 
L 153.766358 135.756495 
L 150.902393 140.772125 
L 148.345463 145.995327 
L 146.110385 151.407189 
L 144.210805 156.987753 
L 142.659122 162.716092 
L 141.466422 168.570385 
L 140.642412 174.528 
L 140.195367 180.565583 
L 140.132071 186.659149 
L 140.457777 192.784175 
L 141.17616 198.915705 
L 142.289288 205.028443 
L 143.797592 211.096864 
L 145.699847 217.095317 
L 147.993156 222.998133 
L 150.672943 228.779736 
L 153.732958 234.414751 
L 157.165279 239.878117 
L 160.960329 245.145191 
L 165.1069 250.191866 
L 169.592179 254.994673 
L 174.401788 259.530887 
L 179.519823 263.778638 
L 184.92891 267.717006 
L 190.61026 271.326125 
L 196.543731 274.587275 
L 202.707901 277.482974 
L 209.080146 279.997069 
L 215.636718 282.114813 
L 222.352838 283.822945 
L 229.202785 285.109763 
L 236.16 285.965186 
L 243.197183 286.380817 
L 250.286403 286.349996 
L 257.399211 285.867841 
L 264.506748 284.931295 
L 271.57987 283.539149 
L 278.589259 281.692075 
L 285.505552 279.392636 
L 292.299458 276.645294 
L 298.941883 273.456418 
L 305.404056 269.834267 
L 311.65765 265.788982 
L 317.674906 261.332558 
L 323.428754 256.478815 
L 328.892934 251.243355 
L 334.042112 245.643517 
L 338.851999 239.698324 
L 343.299456 233.428415 
L 347.362608 226.855975 
L 351.020943 220.004664 
L 354.255412 212.899525 
L 357.048524 205.566897 
L 359.384431 198.034317 
L 361.249012 190.330417 
L 362.629947 182.484815 
L 362.629947 182.484815 
" clip-path="url(#pbdb9721af2)" style="fill: none; stroke: #1f77b4; stroke-width: 1.5; stroke-linecap: square"/>
   </g>
   <g id="patch_3">
    <path d="M 369.216 174.528 
C 369.216 157.055246 365.774248 139.752393 359.087715 123.609673 
C 352.401182 107.466954 342.599903 92.798303 330.2448 80.4432 
C 317.889697 68.088097 303.221046 58.286818 287.078327 51.600285 
C 270.935607 44.913752 253.632754 41.472 236.16 41.472 
C 218.687246 41.472 201.384393 44.913752 185.241673 51.600285 
C 169.098954 58.286818 154.430303 68.088097 142.0752 80.4432 
C 129.720097 92.798303 119.918818 107.466954 113.232285 123.609673 
C 106.545752 139.752393 103.104 157.055246 103.104 174.528 
C 103.104 192.000754 106.545752 209.303607 113.232285 225.446327 
C 119.918818 241.589046 129.720097 256.257697 142.0752 268.6128 
C 154.430303 280.967903 169.098954 290.769182 185.241673 297.455715 
C 201.384393 304.142248 218.687246 307.584 236.16 307.584 
C 253.632754 307.584 270.935607 304.142248 287.078327 297.455715 
C 303.221046 290.769182 317.889697 280.967903 330.2448 268.6128 
C 342.599903 256.257697 352.401182 241.589046 359.087715 225.446327 
C 365.774248 209.303607 369.216 192.000754 369.216 174.528 
" style="fill: none; stroke: #000000; stroke-width: 0.8; stroke-linejoin: miter; stroke-linecap: square"/>
   </g>
  </g>
 </g>
 <defs>
  <clipPath id="pbdb9721af2">
   <path d="M 369.216 174.528 
C 369.216 157.055246 365.774248 139.752393 359.087715 123.609673 
C 352.401182 107.466954 342.599903 92.798303 330.2448 80.4432 
C 317.889697 68.088097 303.221046 58.286818 287.078327 51.600285 
C 270.935607 44.913752 253.632754 41.472 236.16 41.472 
C 218.687246 41.472 201.384393 44.913752 185.241673 51.600285 
C 169.098954 58.286818 154.430303 68.088097 142.0752 80.4432 
C 129.720097 92.798303 119.918818 107.466954 113.232285 123.609673 
C 106.545752 139.752393 103.104 157.055246 103.104 174.528 
C 103.104 192.000754 106.545752 209.303607 113.232285 225.446327 
C 119.918818 241.589046 129.720097 256.257697 142.0752 268.6128 
C 154.430303 280.967903 169.098954 290.769182 185.241673 297.455715 
C 201.384393 304.142248 218.687246 307.584 236.16 307.584 
C 253.632754 307.584 270.935607 304.142248 287.078327 297.455715 
C 303.221046 290.769182 317.889697 280.967903 330.2448 268.6128 
C 342.599903 256.257697 352.401182 241.589046 359.087715 225.446327 
C 365.774248 209.303607 369.216 192.000754 369.216 174.528 
M 236.16 174.528 
C 236.16 174.528 236.16 174.528 236.16 174.528 
C 236.16 174.528 236.16 174.528 236.16 174.528 
C 236.16 174.528 236.16 174.528 236.16 174.528 
C 236.16 174.528 236.16 174.528 236.16 174.528 
C 236.16 174.528 236.16 174.528 236.16 174.528 
C 236.16 174.528 236.16 174.528 236.16 174.528 
C 236.16 174.528 236.16 174.528 236.16 174.528 
C 236.16 174.528 236.16 174.528 236.16 174.528 
C 236.16 174.528 236.16 174.528 236.16 174.528 
C 236.16 174.528 236.16 174.528 236.16 174.528 
C 236.16 174.528 236.16 174.528 236.16 174.528 
C 236.16 174.528 236.16 174.528 236.16 174.528 
C 236.16 174.528 236.16 174.528 236.16 174.528 
C 236.16 174.528 236.16 174.528 236.16 174.528 
C 236.16 174.528 236.16 174.528 236.16 174.528 
C 236.16 174.528 236.16 174.528 236.16 174.528 
z
"/>
  </clipPath>
 </defs>
</svg>
